M48
; DRILL file {KiCad 6.0.11-2627ca5db0~126~ubuntu20.04.1} date Thu 15 Jun 2023 08:01:25 PM EDT
; FORMAT={-:-/ absolute / metric / decimal}
; #@! TF.CreationDate,2023-06-15T20:01:25-04:00
; #@! TF.GenerationSoftware,Kicad,Pcbnew,6.0.11-2627ca5db0~126~ubuntu20.04.1
; #@! TF.FileFunction,Plated,1,2,PTH
FMAT,2
METRIC
; #@! TA.AperFunction,Plated,PTH,ComponentDrill
T1C1.000
%
G90
G05
T1
X113.03Y-87.63
X113.03Y-90.17
X113.03Y-92.71
X113.03Y-95.25
X113.03Y-97.79
X113.03Y-100.33
X113.03Y-102.87
X113.03Y-105.41
X113.03Y-107.95
X113.03Y-110.49
X113.03Y-113.03
X113.03Y-115.57
X113.03Y-118.11
X113.03Y-120.65
X113.03Y-123.19
X113.03Y-125.73
X113.03Y-128.27
X113.03Y-130.81
X113.03Y-133.35
X115.57Y-87.63
X115.57Y-90.17
X115.57Y-92.71
X115.57Y-95.25
X115.57Y-97.79
X115.57Y-100.33
X115.57Y-102.87
X115.57Y-105.41
X115.57Y-107.95
X115.57Y-110.49
X115.57Y-113.03
X115.57Y-115.57
X115.57Y-118.11
X115.57Y-120.65
X115.57Y-123.19
X115.57Y-125.73
X115.57Y-128.27
X115.57Y-130.81
X115.57Y-133.35
X120.65Y-97.79
X120.65Y-100.33
X120.65Y-102.87
X120.65Y-105.41
X120.65Y-107.95
X120.65Y-110.49
X120.65Y-113.03
X120.65Y-115.57
X120.65Y-120.65
X120.65Y-123.19
X120.65Y-125.73
X120.65Y-128.27
X120.65Y-130.81
X120.65Y-133.35
X138.97Y-128.27
X138.97Y-130.81
X138.97Y-133.35
X142.78Y-128.27
X142.78Y-130.81
X142.78Y-133.35
X146.59Y-128.27
X146.59Y-130.81
X146.59Y-133.35
X150.4Y-128.27
X150.4Y-130.81
X150.4Y-133.35
X163.83Y-88.9
X163.83Y-91.44
X163.83Y-93.98
X163.83Y-96.52
X163.83Y-99.06
X163.83Y-101.6
X168.91Y-88.65
X168.91Y-91.19
X168.91Y-93.73
X168.91Y-96.27
X168.91Y-98.81
X168.91Y-101.35
X168.91Y-103.89
X168.91Y-106.43
X168.91Y-108.97
X168.91Y-111.51
X168.91Y-115.57
X168.91Y-118.11
X168.91Y-120.65
X168.91Y-123.19
X168.91Y-125.73
X168.91Y-128.27
X168.91Y-130.81
X168.91Y-133.35
X173.99Y-87.63
X173.99Y-90.17
X173.99Y-92.71
X173.99Y-95.25
X173.99Y-97.79
X173.99Y-100.33
X173.99Y-102.87
X173.99Y-105.41
X173.99Y-107.95
X173.99Y-110.49
X173.99Y-113.03
X173.99Y-115.57
X173.99Y-118.11
X173.99Y-120.65
X173.99Y-123.19
X173.99Y-125.73
X173.99Y-128.27
X173.99Y-130.81
X173.99Y-133.35
X176.53Y-87.63
X176.53Y-90.17
X176.53Y-92.71
X176.53Y-95.25
X176.53Y-97.79
X176.53Y-100.33
X176.53Y-102.87
X176.53Y-105.41
X176.53Y-107.95
X176.53Y-110.49
X176.53Y-113.03
X176.53Y-115.57
X176.53Y-118.11
X176.53Y-120.65
X176.53Y-123.19
X176.53Y-125.73
X176.53Y-128.27
X176.53Y-130.81
X176.53Y-133.35
T0
M30
