%TF.GenerationSoftware,KiCad,Pcbnew,6.0.11-2627ca5db0~126~ubuntu20.04.1*%
%TF.CreationDate,2023-06-15T20:00:44-04:00*%
%TF.ProjectId,breakout,62726561-6b6f-4757-942e-6b696361645f,rev?*%
%TF.SameCoordinates,Original*%
%TF.FileFunction,Legend,Top*%
%TF.FilePolarity,Positive*%
%FSLAX46Y46*%
G04 Gerber Fmt 4.6, Leading zero omitted, Abs format (unit mm)*
G04 Created by KiCad (PCBNEW 6.0.11-2627ca5db0~126~ubuntu20.04.1) date 2023-06-15 20:00:44*
%MOMM*%
%LPD*%
G01*
G04 APERTURE LIST*
%ADD10C,0.150000*%
%ADD11C,0.120000*%
G04 APERTURE END LIST*
D10*
%TO.C,CN7*%
X113609523Y-85217142D02*
X113561904Y-85264761D01*
X113419047Y-85312380D01*
X113323809Y-85312380D01*
X113180952Y-85264761D01*
X113085714Y-85169523D01*
X113038095Y-85074285D01*
X112990476Y-84883809D01*
X112990476Y-84740952D01*
X113038095Y-84550476D01*
X113085714Y-84455238D01*
X113180952Y-84360000D01*
X113323809Y-84312380D01*
X113419047Y-84312380D01*
X113561904Y-84360000D01*
X113609523Y-84407619D01*
X114038095Y-85312380D02*
X114038095Y-84312380D01*
X114609523Y-85312380D01*
X114609523Y-84312380D01*
X114990476Y-84312380D02*
X115657142Y-84312380D01*
X115228571Y-85312380D01*
%TO.C,CN10*%
X174093333Y-85217142D02*
X174045714Y-85264761D01*
X173902857Y-85312380D01*
X173807619Y-85312380D01*
X173664761Y-85264761D01*
X173569523Y-85169523D01*
X173521904Y-85074285D01*
X173474285Y-84883809D01*
X173474285Y-84740952D01*
X173521904Y-84550476D01*
X173569523Y-84455238D01*
X173664761Y-84360000D01*
X173807619Y-84312380D01*
X173902857Y-84312380D01*
X174045714Y-84360000D01*
X174093333Y-84407619D01*
X174521904Y-85312380D02*
X174521904Y-84312380D01*
X175093333Y-85312380D01*
X175093333Y-84312380D01*
X176093333Y-85312380D02*
X175521904Y-85312380D01*
X175807619Y-85312380D02*
X175807619Y-84312380D01*
X175712380Y-84455238D01*
X175617142Y-84550476D01*
X175521904Y-84598095D01*
X176712380Y-84312380D02*
X176807619Y-84312380D01*
X176902857Y-84360000D01*
X176950476Y-84407619D01*
X176998095Y-84502857D01*
X177045714Y-84693333D01*
X177045714Y-84931428D01*
X176998095Y-85121904D01*
X176950476Y-85217142D01*
X176902857Y-85264761D01*
X176807619Y-85312380D01*
X176712380Y-85312380D01*
X176617142Y-85264761D01*
X176569523Y-85217142D01*
X176521904Y-85121904D01*
X176474285Y-84931428D01*
X176474285Y-84693333D01*
X176521904Y-84502857D01*
X176569523Y-84407619D01*
X176617142Y-84360000D01*
X176712380Y-84312380D01*
%TO.C,ESC4*%
X148733333Y-125868571D02*
X149066666Y-125868571D01*
X149209523Y-126392380D02*
X148733333Y-126392380D01*
X148733333Y-125392380D01*
X149209523Y-125392380D01*
X149590476Y-126344761D02*
X149733333Y-126392380D01*
X149971428Y-126392380D01*
X150066666Y-126344761D01*
X150114285Y-126297142D01*
X150161904Y-126201904D01*
X150161904Y-126106666D01*
X150114285Y-126011428D01*
X150066666Y-125963809D01*
X149971428Y-125916190D01*
X149780952Y-125868571D01*
X149685714Y-125820952D01*
X149638095Y-125773333D01*
X149590476Y-125678095D01*
X149590476Y-125582857D01*
X149638095Y-125487619D01*
X149685714Y-125440000D01*
X149780952Y-125392380D01*
X150019047Y-125392380D01*
X150161904Y-125440000D01*
X151161904Y-126297142D02*
X151114285Y-126344761D01*
X150971428Y-126392380D01*
X150876190Y-126392380D01*
X150733333Y-126344761D01*
X150638095Y-126249523D01*
X150590476Y-126154285D01*
X150542857Y-125963809D01*
X150542857Y-125820952D01*
X150590476Y-125630476D01*
X150638095Y-125535238D01*
X150733333Y-125440000D01*
X150876190Y-125392380D01*
X150971428Y-125392380D01*
X151114285Y-125440000D01*
X151161904Y-125487619D01*
X152019047Y-125725714D02*
X152019047Y-126392380D01*
X151780952Y-125344761D02*
X151542857Y-126059047D01*
X152161904Y-126059047D01*
%TO.C,ESC3*%
X144923333Y-125868571D02*
X145256666Y-125868571D01*
X145399523Y-126392380D02*
X144923333Y-126392380D01*
X144923333Y-125392380D01*
X145399523Y-125392380D01*
X145780476Y-126344761D02*
X145923333Y-126392380D01*
X146161428Y-126392380D01*
X146256666Y-126344761D01*
X146304285Y-126297142D01*
X146351904Y-126201904D01*
X146351904Y-126106666D01*
X146304285Y-126011428D01*
X146256666Y-125963809D01*
X146161428Y-125916190D01*
X145970952Y-125868571D01*
X145875714Y-125820952D01*
X145828095Y-125773333D01*
X145780476Y-125678095D01*
X145780476Y-125582857D01*
X145828095Y-125487619D01*
X145875714Y-125440000D01*
X145970952Y-125392380D01*
X146209047Y-125392380D01*
X146351904Y-125440000D01*
X147351904Y-126297142D02*
X147304285Y-126344761D01*
X147161428Y-126392380D01*
X147066190Y-126392380D01*
X146923333Y-126344761D01*
X146828095Y-126249523D01*
X146780476Y-126154285D01*
X146732857Y-125963809D01*
X146732857Y-125820952D01*
X146780476Y-125630476D01*
X146828095Y-125535238D01*
X146923333Y-125440000D01*
X147066190Y-125392380D01*
X147161428Y-125392380D01*
X147304285Y-125440000D01*
X147351904Y-125487619D01*
X147685238Y-125392380D02*
X148304285Y-125392380D01*
X147970952Y-125773333D01*
X148113809Y-125773333D01*
X148209047Y-125820952D01*
X148256666Y-125868571D01*
X148304285Y-125963809D01*
X148304285Y-126201904D01*
X148256666Y-126297142D01*
X148209047Y-126344761D01*
X148113809Y-126392380D01*
X147828095Y-126392380D01*
X147732857Y-126344761D01*
X147685238Y-126297142D01*
%TO.C,CN9*%
X168219523Y-113597142D02*
X168171904Y-113644761D01*
X168029047Y-113692380D01*
X167933809Y-113692380D01*
X167790952Y-113644761D01*
X167695714Y-113549523D01*
X167648095Y-113454285D01*
X167600476Y-113263809D01*
X167600476Y-113120952D01*
X167648095Y-112930476D01*
X167695714Y-112835238D01*
X167790952Y-112740000D01*
X167933809Y-112692380D01*
X168029047Y-112692380D01*
X168171904Y-112740000D01*
X168219523Y-112787619D01*
X168648095Y-113692380D02*
X168648095Y-112692380D01*
X169219523Y-113692380D01*
X169219523Y-112692380D01*
X169743333Y-113692380D02*
X169933809Y-113692380D01*
X170029047Y-113644761D01*
X170076666Y-113597142D01*
X170171904Y-113454285D01*
X170219523Y-113263809D01*
X170219523Y-112882857D01*
X170171904Y-112787619D01*
X170124285Y-112740000D01*
X170029047Y-112692380D01*
X169838571Y-112692380D01*
X169743333Y-112740000D01*
X169695714Y-112787619D01*
X169648095Y-112882857D01*
X169648095Y-113120952D01*
X169695714Y-113216190D01*
X169743333Y-113263809D01*
X169838571Y-113311428D01*
X170029047Y-113311428D01*
X170124285Y-113263809D01*
X170171904Y-113216190D01*
X170219523Y-113120952D01*
%TO.C,CN6*%
X119959523Y-95817142D02*
X119911904Y-95864761D01*
X119769047Y-95912380D01*
X119673809Y-95912380D01*
X119530952Y-95864761D01*
X119435714Y-95769523D01*
X119388095Y-95674285D01*
X119340476Y-95483809D01*
X119340476Y-95340952D01*
X119388095Y-95150476D01*
X119435714Y-95055238D01*
X119530952Y-94960000D01*
X119673809Y-94912380D01*
X119769047Y-94912380D01*
X119911904Y-94960000D01*
X119959523Y-95007619D01*
X120388095Y-95912380D02*
X120388095Y-94912380D01*
X120959523Y-95912380D01*
X120959523Y-94912380D01*
X121864285Y-94912380D02*
X121673809Y-94912380D01*
X121578571Y-94960000D01*
X121530952Y-95007619D01*
X121435714Y-95150476D01*
X121388095Y-95340952D01*
X121388095Y-95721904D01*
X121435714Y-95817142D01*
X121483333Y-95864761D01*
X121578571Y-95912380D01*
X121769047Y-95912380D01*
X121864285Y-95864761D01*
X121911904Y-95817142D01*
X121959523Y-95721904D01*
X121959523Y-95483809D01*
X121911904Y-95388571D01*
X121864285Y-95340952D01*
X121769047Y-95293333D01*
X121578571Y-95293333D01*
X121483333Y-95340952D01*
X121435714Y-95388571D01*
X121388095Y-95483809D01*
%TO.C,CN8*%
X119959523Y-118677142D02*
X119911904Y-118724761D01*
X119769047Y-118772380D01*
X119673809Y-118772380D01*
X119530952Y-118724761D01*
X119435714Y-118629523D01*
X119388095Y-118534285D01*
X119340476Y-118343809D01*
X119340476Y-118200952D01*
X119388095Y-118010476D01*
X119435714Y-117915238D01*
X119530952Y-117820000D01*
X119673809Y-117772380D01*
X119769047Y-117772380D01*
X119911904Y-117820000D01*
X119959523Y-117867619D01*
X120388095Y-118772380D02*
X120388095Y-117772380D01*
X120959523Y-118772380D01*
X120959523Y-117772380D01*
X121578571Y-118200952D02*
X121483333Y-118153333D01*
X121435714Y-118105714D01*
X121388095Y-118010476D01*
X121388095Y-117962857D01*
X121435714Y-117867619D01*
X121483333Y-117820000D01*
X121578571Y-117772380D01*
X121769047Y-117772380D01*
X121864285Y-117820000D01*
X121911904Y-117867619D01*
X121959523Y-117962857D01*
X121959523Y-118010476D01*
X121911904Y-118105714D01*
X121864285Y-118153333D01*
X121769047Y-118200952D01*
X121578571Y-118200952D01*
X121483333Y-118248571D01*
X121435714Y-118296190D01*
X121388095Y-118391428D01*
X121388095Y-118581904D01*
X121435714Y-118677142D01*
X121483333Y-118724761D01*
X121578571Y-118772380D01*
X121769047Y-118772380D01*
X121864285Y-118724761D01*
X121911904Y-118677142D01*
X121959523Y-118581904D01*
X121959523Y-118391428D01*
X121911904Y-118296190D01*
X121864285Y-118248571D01*
X121769047Y-118200952D01*
%TO.C,IMU1*%
X162258571Y-87022380D02*
X162258571Y-86022380D01*
X162734761Y-87022380D02*
X162734761Y-86022380D01*
X163068095Y-86736666D01*
X163401428Y-86022380D01*
X163401428Y-87022380D01*
X163877619Y-86022380D02*
X163877619Y-86831904D01*
X163925238Y-86927142D01*
X163972857Y-86974761D01*
X164068095Y-87022380D01*
X164258571Y-87022380D01*
X164353809Y-86974761D01*
X164401428Y-86927142D01*
X164449047Y-86831904D01*
X164449047Y-86022380D01*
X165449047Y-87022380D02*
X164877619Y-87022380D01*
X165163333Y-87022380D02*
X165163333Y-86022380D01*
X165068095Y-86165238D01*
X164972857Y-86260476D01*
X164877619Y-86308095D01*
%TO.C,ESC2*%
X141113333Y-125868571D02*
X141446666Y-125868571D01*
X141589523Y-126392380D02*
X141113333Y-126392380D01*
X141113333Y-125392380D01*
X141589523Y-125392380D01*
X141970476Y-126344761D02*
X142113333Y-126392380D01*
X142351428Y-126392380D01*
X142446666Y-126344761D01*
X142494285Y-126297142D01*
X142541904Y-126201904D01*
X142541904Y-126106666D01*
X142494285Y-126011428D01*
X142446666Y-125963809D01*
X142351428Y-125916190D01*
X142160952Y-125868571D01*
X142065714Y-125820952D01*
X142018095Y-125773333D01*
X141970476Y-125678095D01*
X141970476Y-125582857D01*
X142018095Y-125487619D01*
X142065714Y-125440000D01*
X142160952Y-125392380D01*
X142399047Y-125392380D01*
X142541904Y-125440000D01*
X143541904Y-126297142D02*
X143494285Y-126344761D01*
X143351428Y-126392380D01*
X143256190Y-126392380D01*
X143113333Y-126344761D01*
X143018095Y-126249523D01*
X142970476Y-126154285D01*
X142922857Y-125963809D01*
X142922857Y-125820952D01*
X142970476Y-125630476D01*
X143018095Y-125535238D01*
X143113333Y-125440000D01*
X143256190Y-125392380D01*
X143351428Y-125392380D01*
X143494285Y-125440000D01*
X143541904Y-125487619D01*
X143922857Y-125487619D02*
X143970476Y-125440000D01*
X144065714Y-125392380D01*
X144303809Y-125392380D01*
X144399047Y-125440000D01*
X144446666Y-125487619D01*
X144494285Y-125582857D01*
X144494285Y-125678095D01*
X144446666Y-125820952D01*
X143875238Y-126392380D01*
X144494285Y-126392380D01*
%TO.C,ESC1*%
X137303333Y-125868571D02*
X137636666Y-125868571D01*
X137779523Y-126392380D02*
X137303333Y-126392380D01*
X137303333Y-125392380D01*
X137779523Y-125392380D01*
X138160476Y-126344761D02*
X138303333Y-126392380D01*
X138541428Y-126392380D01*
X138636666Y-126344761D01*
X138684285Y-126297142D01*
X138731904Y-126201904D01*
X138731904Y-126106666D01*
X138684285Y-126011428D01*
X138636666Y-125963809D01*
X138541428Y-125916190D01*
X138350952Y-125868571D01*
X138255714Y-125820952D01*
X138208095Y-125773333D01*
X138160476Y-125678095D01*
X138160476Y-125582857D01*
X138208095Y-125487619D01*
X138255714Y-125440000D01*
X138350952Y-125392380D01*
X138589047Y-125392380D01*
X138731904Y-125440000D01*
X139731904Y-126297142D02*
X139684285Y-126344761D01*
X139541428Y-126392380D01*
X139446190Y-126392380D01*
X139303333Y-126344761D01*
X139208095Y-126249523D01*
X139160476Y-126154285D01*
X139112857Y-125963809D01*
X139112857Y-125820952D01*
X139160476Y-125630476D01*
X139208095Y-125535238D01*
X139303333Y-125440000D01*
X139446190Y-125392380D01*
X139541428Y-125392380D01*
X139684285Y-125440000D01*
X139731904Y-125487619D01*
X140684285Y-126392380D02*
X140112857Y-126392380D01*
X140398571Y-126392380D02*
X140398571Y-125392380D01*
X140303333Y-125535238D01*
X140208095Y-125630476D01*
X140112857Y-125678095D01*
%TO.C,CN5*%
X168219523Y-86677142D02*
X168171904Y-86724761D01*
X168029047Y-86772380D01*
X167933809Y-86772380D01*
X167790952Y-86724761D01*
X167695714Y-86629523D01*
X167648095Y-86534285D01*
X167600476Y-86343809D01*
X167600476Y-86200952D01*
X167648095Y-86010476D01*
X167695714Y-85915238D01*
X167790952Y-85820000D01*
X167933809Y-85772380D01*
X168029047Y-85772380D01*
X168171904Y-85820000D01*
X168219523Y-85867619D01*
X168648095Y-86772380D02*
X168648095Y-85772380D01*
X169219523Y-86772380D01*
X169219523Y-85772380D01*
X170171904Y-85772380D02*
X169695714Y-85772380D01*
X169648095Y-86248571D01*
X169695714Y-86200952D01*
X169790952Y-86153333D01*
X170029047Y-86153333D01*
X170124285Y-86200952D01*
X170171904Y-86248571D01*
X170219523Y-86343809D01*
X170219523Y-86581904D01*
X170171904Y-86677142D01*
X170124285Y-86724761D01*
X170029047Y-86772380D01*
X169790952Y-86772380D01*
X169695714Y-86724761D01*
X169648095Y-86677142D01*
D11*
%TO.C,CN7*%
X115570000Y-86300000D02*
X116900000Y-86300000D01*
X116900000Y-88900000D02*
X116900000Y-134680000D01*
X111700000Y-86300000D02*
X114300000Y-86300000D01*
X116900000Y-86300000D02*
X116900000Y-87630000D01*
X111700000Y-134680000D02*
X116900000Y-134680000D01*
X114300000Y-88900000D02*
X116900000Y-88900000D01*
X114300000Y-86300000D02*
X114300000Y-88900000D01*
X111700000Y-86300000D02*
X111700000Y-134680000D01*
%TO.C,CN10*%
X176530000Y-86300000D02*
X177860000Y-86300000D01*
X177860000Y-86300000D02*
X177860000Y-87630000D01*
X177860000Y-88900000D02*
X177860000Y-134680000D01*
X172660000Y-86300000D02*
X175260000Y-86300000D01*
X175260000Y-86300000D02*
X175260000Y-88900000D01*
X175260000Y-88900000D02*
X177860000Y-88900000D01*
X172660000Y-86300000D02*
X172660000Y-134680000D01*
X172660000Y-134680000D02*
X177860000Y-134680000D01*
%TO.C,ESC4*%
X149070000Y-128270000D02*
X149070000Y-126940000D01*
X149070000Y-129540000D02*
X149070000Y-134680000D01*
X149070000Y-129540000D02*
X151730000Y-129540000D01*
X149070000Y-134680000D02*
X151730000Y-134680000D01*
X151730000Y-129540000D02*
X151730000Y-134680000D01*
X149070000Y-126940000D02*
X150400000Y-126940000D01*
%TO.C,ESC3*%
X145260000Y-128270000D02*
X145260000Y-126940000D01*
X147920000Y-129540000D02*
X147920000Y-134680000D01*
X145260000Y-129540000D02*
X147920000Y-129540000D01*
X145260000Y-126940000D02*
X146590000Y-126940000D01*
X145260000Y-134680000D02*
X147920000Y-134680000D01*
X145260000Y-129540000D02*
X145260000Y-134680000D01*
%TO.C,CN9*%
X167580000Y-115570000D02*
X167580000Y-114240000D01*
X167580000Y-116840000D02*
X167580000Y-134680000D01*
X170240000Y-116840000D02*
X170240000Y-134680000D01*
X167580000Y-116840000D02*
X170240000Y-116840000D01*
X167580000Y-114240000D02*
X168910000Y-114240000D01*
X167580000Y-134680000D02*
X170240000Y-134680000D01*
%TO.C,CN6*%
X119320000Y-97790000D02*
X119320000Y-96460000D01*
X121980000Y-99060000D02*
X121980000Y-116900000D01*
X119320000Y-116900000D02*
X121980000Y-116900000D01*
X119320000Y-96460000D02*
X120650000Y-96460000D01*
X119320000Y-99060000D02*
X119320000Y-116900000D01*
X119320000Y-99060000D02*
X121980000Y-99060000D01*
%TO.C,CN8*%
X119320000Y-134680000D02*
X121980000Y-134680000D01*
X119320000Y-121920000D02*
X121980000Y-121920000D01*
X119320000Y-120650000D02*
X119320000Y-119320000D01*
X119320000Y-119320000D02*
X120650000Y-119320000D01*
X119320000Y-121920000D02*
X119320000Y-134680000D01*
X121980000Y-121920000D02*
X121980000Y-134680000D01*
%TO.C,IMU1*%
X162500000Y-87570000D02*
X163830000Y-87570000D01*
X162500000Y-102930000D02*
X165160000Y-102930000D01*
X165160000Y-90170000D02*
X165160000Y-102930000D01*
X162500000Y-90170000D02*
X165160000Y-90170000D01*
X162500000Y-88900000D02*
X162500000Y-87570000D01*
X162500000Y-90170000D02*
X162500000Y-102930000D01*
%TO.C,ESC2*%
X141450000Y-128270000D02*
X141450000Y-126940000D01*
X141450000Y-129540000D02*
X144110000Y-129540000D01*
X141450000Y-129540000D02*
X141450000Y-134680000D01*
X144110000Y-129540000D02*
X144110000Y-134680000D01*
X141450000Y-126940000D02*
X142780000Y-126940000D01*
X141450000Y-134680000D02*
X144110000Y-134680000D01*
%TO.C,ESC1*%
X137640000Y-134680000D02*
X140300000Y-134680000D01*
X137640000Y-129540000D02*
X140300000Y-129540000D01*
X137640000Y-126940000D02*
X138970000Y-126940000D01*
X140300000Y-129540000D02*
X140300000Y-134680000D01*
X137640000Y-128270000D02*
X137640000Y-126940000D01*
X137640000Y-129540000D02*
X137640000Y-134680000D01*
%TO.C,CN5*%
X167580000Y-89920000D02*
X170240000Y-89920000D01*
X167580000Y-112840000D02*
X170240000Y-112840000D01*
X170240000Y-89920000D02*
X170240000Y-112840000D01*
X167580000Y-88650000D02*
X167580000Y-87320000D01*
X167580000Y-87320000D02*
X168910000Y-87320000D01*
X167580000Y-89920000D02*
X167580000Y-112840000D01*
%TD*%
M02*
